Coordinates
version=1
nRows=14
nColumns=40
inDegrees=yes

Units are S.I. units (second, meters, Newtons, ...)
Angles are in degrees.

endheader
time	pelvis_tilt	pelvis_list	pelvis_rotation	pelvis_tx	pelvis_ty	pelvis_tz	hip_flexion_r	hip_adduction_r	hip_rotation_r	knee_angle_r	knee_angle_r_beta	ankle_angle_r	subtalar_angle_r	mtp_angle_r	hip_flexion_l	hip_adduction_l	hip_rotation_l	knee_angle_l	knee_angle_l_beta	ankle_angle_l	subtalar_angle_l	mtp_angle_l	lumbar_extension	lumbar_bending	lumbar_rotation	arm_flex_r	arm_add_r	arm_rot_r	elbow_flex_r	pro_sup_r	wrist_flex_r	wrist_dev_r	arm_flex_l	arm_add_l	arm_rot_l	elbow_flex_l	pro_sup_l	wrist_flex_l	wrist_dev_l
      1.66000000	      0.60048687	      2.53546692	     -1.66905269	      0.41498504	      0.93579339	     -1.42093076	    -11.63640078	     -5.11262781	    -20.17943647	    -18.91514824	     -0.33013162	     12.53149714	      4.57134298	    -13.82223266	     22.45790546	      3.20502255	     18.93141693	    -12.35225411	     -0.21558750	     -2.13619407	     -0.20937450	      6.02147186	     -4.69231299	     -5.20386960	      7.92442124	      9.80399941	    -13.78749494	    -16.32685390	     28.49603382	     89.95437384	      0.00000000	      0.00000000	    -14.00036433	     13.08404899	     15.69342927	      9.54426287	     89.95437384	      0.00000000	      0.00000000
      1.67000000	      0.46439150	      2.51949496	     -1.74469057	      0.42589975	      0.93451804	     -1.42353018	    -11.92330293	     -5.40206107	    -19.87468040	    -19.47441885	     -0.33989273	     12.19574560	      4.41602339	    -13.54792919	     22.33463485	      3.06229265	     18.48907506	    -12.95845412	     -0.22616769	     -2.23827889	     -0.17198831	      5.90478110	     -4.27748133	     -5.12394220	      8.02826871	      9.35281864	    -13.70091267	    -16.23030744	     28.57400883	     89.95437384	      0.00000000	      0.00000000	    -14.28527006	     13.17953087	     15.68217347	      9.79871562	     89.95437384	      0.00000000	      0.00000000
      1.68000000	      1.42528016	      3.55128293	     -2.00124545	      0.43774308	      0.93516771	     -1.42691192	    -13.44984314	     -7.32105610	    -21.26645699	    -20.14418460	     -0.35158235	     11.71202662	      6.21645775	    -13.98967594	     20.62419060	      1.64698886	     18.76738154	    -12.84435253	     -0.22417624	     -3.50830231	      0.48054462	      5.79067602	     -5.01849675	     -6.21331173	      8.17358949	      9.11239567	    -13.57819544	    -16.03684514	     28.34690671	     89.95437384	      0.00000000	      0.00000000	    -13.93100496	     13.30352576	     16.70283559	      9.16101072	     89.95437384	      0.00000000	      0.00000000
      1.69000000	      1.50552869	      3.65354400	     -1.97929824	      0.44857839	      0.93447051	     -1.42995059	    -13.92221566	     -7.82569642	    -21.35423294	    -20.81056842	     -0.36321294	     11.29927681	      6.18153335	    -13.81486891	     20.48361652	      1.49181834	     19.00523984	    -13.57781302	     -0.23697754	     -5.64161159	      0.94935272	      6.06287680	     -4.87821584	     -6.24588882	      8.17004123	      8.77672670	    -13.51285907	    -15.83932959	     28.16283235	     89.95437384	      0.00000000	      0.00000000	    -13.90056358	     13.38647907	     16.71183946	      9.10811392	     89.95437384	      0.00000000	      0.00000000
      1.70000000	      1.92975873	      4.55577019	     -2.24641620	      0.46009952	      0.93460877	     -1.43315582	    -14.60407379	     -9.49221914	    -21.74889827	    -21.84220215	     -0.38121834	     10.50527320	      7.04218035	    -13.92190557	     19.40091474	      0.39367996	     19.30782681	    -13.15208684	     -0.22954722	     -7.58238043	      0.71279792	      5.78450059	     -5.01753646	     -7.19805312	      8.17842867	      8.51096357	    -13.13162964	    -16.22461642	     28.06216566	     89.95437384	      0.00000000	      0.00000000	    -13.98399753	     13.50545468	     17.33452566	      9.12597950	     89.95437384	      0.00000000	      0.00000000
      1.71000000	      2.05920583	      4.82193676	     -2.24211320	      0.47093893	      0.93443623	     -1.43661465	    -14.96049840	    -10.21609435	    -21.52942530	    -22.74832595	     -0.39703319	      9.78646521	      6.81651451	    -13.57138008	     19.31061199	      0.08760574	     18.97209363	    -14.27248232	     -0.24910181	     -7.80536042	      0.85684430	      5.52904671	     -4.93015451	     -7.38996567	      8.25068291	      8.08866580	    -13.10210837	    -16.08590816	     27.80764531	     89.95437384	      0.00000000	      0.00000000	    -13.87257000	     13.57496693	     17.28022272	      9.27525499	     89.95437384	      0.00000000	      0.00000000
      1.72000000	      2.35041718	      5.50094227	     -2.28229596	      0.48228669	      0.93473024	     -1.44053416	    -15.34016499	    -11.65519041	    -22.08216491	    -24.04927493	     -0.41973903	      8.53798212	      6.89819863	    -13.22539659	     19.05424537	     -0.66856059	     19.36854801	    -15.76918011	     -0.27522411	     -7.29557945	      1.35841376	      4.89023035	     -4.93532536	     -7.99293206	      8.21777056	      7.79402521	    -12.96725666	    -16.13644233	     27.36436776	     89.95437384	      0.00000000	      0.00000000	    -13.61089390	     13.65450326	     17.34369235	      8.93514561	     89.95437384	      0.00000000	      0.00000000
      1.73000000	      2.45483108	      6.04003617	     -2.25514355	      0.49331498	      0.93501848	     -1.44411125	    -15.31778055	    -12.86973759	    -22.21981917	    -25.62860349	     -0.44730351	      7.21909871	      6.91013082	    -12.77872579	     18.99861072	     -1.41769644	     18.66787435	    -17.23691416	     -0.30084091	     -6.62024850	      1.43512798	      4.27964109	     -4.80215051	     -8.49173744	      8.15246506	      7.39014676	    -12.73250469	    -16.29311996	     27.04455261	     89.95437384	      0.00000000	      0.00000000	    -13.43262047	     13.77553697	     17.28950574	      8.96301696	     89.95437384	      0.00000000	      0.00000000
      1.74000000	      2.44227949	      6.51571585	     -2.15059409	      0.50424842	      0.93546804	     -1.44804163	    -14.97137382	    -14.08879664	    -22.45300823	    -27.50541349	     -0.48006003	      5.56013452	      6.87309098	    -12.28308060	     18.95262147	     -2.25698896	     17.77584963	    -18.34217000	     -0.32013126	     -6.09820899	      1.70265899	      3.70383203	     -4.54223201	     -8.86814786	      8.07187705	      6.93058855	    -12.52952508	    -16.57037896	     26.69259726	     89.95437384	      0.00000000	      0.00000000	    -13.16156191	     13.84263580	     17.19546288	      8.93652616	     89.95437384	      0.00000000	      0.00000000
      1.75000000	      2.11289654	      7.68209061	     -1.90573034	      0.51490309	      0.93563826	     -1.45283965	    -14.04187457	    -16.41935273	    -23.47288817	    -30.08694710	     -0.52511629	      4.10820363	      8.34707394	    -12.28538460	     18.89120214	     -4.40761218	     15.42299739	    -18.40582419	     -0.32124223	     -6.09591297	      5.65412684	      1.44884140	     -3.96476981	     -9.97347919	      7.88227200	      6.33559180	    -12.21794613	    -17.08567807	     26.45315664	     89.95437384	      0.00000000	      0.00000000	    -12.89839917	     14.00259186	     17.01803629	      9.07049714	     89.95437384	      0.00000000	      0.00000000
      1.76000000	      2.11942598	      7.95673378	     -1.79672664	      0.52562560	      0.93654924	     -1.45636420	    -13.44665666	    -17.35199068	    -23.36863377	    -32.08327326	     -0.55995875	      1.42552408	      7.36194282	    -11.47147025	     18.62656177	     -5.01811516	     14.94214729	    -19.23276851	     -0.33567513	     -5.24220432	      6.10817844	      1.03690135	     -3.77062087	    -10.15969523	      7.80975496	      5.83898662	    -12.02746056	    -17.23121439	     26.09983671	     89.95437384	      0.00000000	      0.00000000	    -12.51280060	     14.08600182	     16.86448860	      9.12850687	     89.95437384	      0.00000000	      0.00000000
      1.77000000	      2.00400139	      8.56997466	     -1.65728087	      0.53591751	      0.93748548	     -1.46045155	    -12.46559519	    -18.82184418	    -23.47706610	    -34.49498923	     -0.60205114	     -1.16844527	      6.30222071	    -10.54378071	     18.15576513	     -6.37666814	     13.39229725	    -19.18253362	     -0.33479837	     -4.94014488	      8.40405108	      0.68448462	     -3.49145242	    -10.67123191	      7.75807899	      5.30587046	    -11.85625645	    -17.51437626	     25.82787032	     89.95437384	      0.00000000	      0.00000000	    -12.05873192	     14.18158149	     16.77762065	      9.32616908	     89.95437384	      0.00000000	      0.00000000
      1.78000000	      2.05838657	      8.92462349	     -1.54569310	      0.54613351	      0.93873768	     -1.46417469	    -11.64065780	    -19.89989646	    -23.32623068	    -36.62929032	     -0.63930172	     -4.14646713	      5.46708484	     -9.49721979	     17.44094659	     -7.25721205	     12.76076992	    -19.15400093	     -0.33430038	     -4.20616068	      9.27794750	      0.61333540	     -3.41590789	    -10.90975267	      7.65781626	      4.79872820	    -11.77761054	    -17.33408934	     25.53220202	     89.95437384	      0.00000000	      0.00000000	    -11.56670612	     14.22120571	     16.71673592	      9.57351700	     89.95437384	      0.00000000	      0.00000000
      1.79000000	      2.08083842	      9.23198288	     -1.46124330	      0.55583564	      0.94005660	     -1.46769829	    -10.60556118	    -20.84046177	    -22.85370052	    -38.75171651	     -0.67634504	     -7.15889060	      4.24803880	     -8.39057205	     16.67001500	     -8.04079579	     12.27166910	    -18.96632254	     -0.33102478	     -3.59385458	      9.97728562	      0.70622994	     -3.36235918	    -11.11667179	      7.52644664	      4.42955948	    -11.65711331	    -17.32253800	     25.20355485	     89.95437384	      0.00000000	      0.00000000	    -11.01645172	     14.24161607	     17.06156563	      9.86637818	     89.95437384	      0.00000000	      0.00000000
